<?xml version="1.0" encoding="utf-8"?>
<!-- Generator: Adobe Illustrator 21.0.0, SVG Export Plug-In . SVG Version: 6.00 Build 0)  -->
<svg version="1.1" id="图层_1" xmlns="http://www.w3.org/2000/svg" xmlns:xlink="http://www.w3.org/1999/xlink" x="0px" y="0px"
	 width="48px" height="48px" viewBox="0 0 48 48" enable-background="new 0 0 48 48" xml:space="preserve">
<path fill-rule="evenodd" clip-rule="evenodd" fill="#006EFF" d="M4,6v37h40V6H4z M29.5,27c-1.381,0-2.5-1.119-2.5-2.5
	s1.119-2.5,2.5-2.5s2.5,1.119,2.5,2.5S30.881,27,29.5,27z"/>
<path fill-rule="evenodd" clip-rule="evenodd" fill="#B2D3FF" d="M29.5,19c-3.037,0-5.5,2.462-5.5,5.5s2.463,5.5,5.5,5.5H44V19H29.5
	z M29.5,27c-1.381,0-2.5-1.119-2.5-2.5s1.119-2.5,2.5-2.5s2.5,1.119,2.5,2.5S30.881,27,29.5,27z"/>
</svg>
