<?xml version="1.0" encoding="utf-8"?>
<!-- Generator: Adobe Illustrator 22.1.0, SVG Export Plug-In . SVG Version: 6.00 Build 0)  -->
<!DOCTYPE svg PUBLIC "-//W3C//DTD SVG 1.1//EN" "http://www.w3.org/Graphics/SVG/1.1/DTD/svg11.dtd">
<svg version="1.1" id="图层_1" xmlns="http://www.w3.org/2000/svg" xmlns:xlink="http://www.w3.org/1999/xlink" x="0px" y="0px"
	 width="128px" height="128px" viewBox="0 0 128 128" style="enable-background:new 0 0 128 128;" xml:space="preserve">
<style type="text/css">
	.st0{fill:#DDDDDD;}
	.st1{clip-path:url(#SVGID_2_);fill:#F8F8F8;}
</style>
<circle class="st0" cx="64" cy="64" r="64"/>
<g>
	<defs>
		<circle id="SVGID_1_" cx="64" cy="64" r="64"/>
	</defs>
	<clipPath id="SVGID_2_">
		<use xlink:href="#SVGID_1_"  style="overflow:visible;"/>
	</clipPath>
	<path class="st1" d="M112.9,128c-1.1-5.7-3-13.9-4.9-17c-3-5-10-8-16-12s-16-9-16-15c0-5,5-7,8-14c2.8-6.6,3-13,3-23
		c0-11-10-20-23-20s-23,9-23,20c0,10,0.2,16.4,3,23c3,7,8,9,8,14c0,6-10,11-16,15s-13,7-16,12c-1.9,3.1-3.7,11.3-4.9,17H112.9z"/>
</g>
</svg>
