<?xml version="1.0" encoding="UTF-8"?>
<svg width="128px" height="128px" viewBox="0 0 128 128" version="1.1" xmlns="http://www.w3.org/2000/svg" xmlns:xlink="http://www.w3.org/1999/xlink">
    <!-- Generator: Sketch 50.2 (55047) - http://www.bohemiancoding.com/sketch -->
    <title>icon-头像-默认头像 女</title>
    <desc>Created with Sketch.</desc>
    <defs>
        <linearGradient x1="99.0155347%" y1="50.9844653%" x2="0.984465318%" y2="50.9844653%" id="linearGradient-1">
            <stop stop-color="#006EFF" offset="0%"></stop>
            <stop stop-color="#00A4FF" offset="100%"></stop>
        </linearGradient>
    </defs>
    <g id="Page-1" stroke="none" stroke-width="1" fill="none" fill-rule="evenodd">
        <g id="icon-头像-默认头像-女">
            <rect id="Rectangle-path" fill="#F8F8F8" fill-rule="nonzero" x="0" y="0" width="128" height="128"></rect>
            <path d="M65.0666667,128 C65.0666667,128 51.7333333,128 35.2,128 C23.8933333,128 11.2,128 0,128 L0,108.053333 C2.66666667,102.293333 6.72,96.8533333 12.0533333,90.7733333 C20.0533333,81.7066667 21.9733333,70.08 23.4666667,52.2666667 C23.4666667,29.8666667 41.6,11.7333333 64,11.7333333 C86.4,11.7333333 104.533333,29.8666667 104.533333,52.2666667 L104.533333,128 C104.533333,128 85.76,128 65.0666667,128 Z" id="Shape" fill="#222222"></path>
            <path d="M103.466667,128 C104.613333,120.853333 85.3333333,115.2 64,115.2 C42.6666667,115.2 23.3866667,120.853333 24.5333333,128 L103.466667,128 Z" id="Shape" fill="url(#linearGradient-1)"></path>
            <path d="M102.133333,126 C97.44,124.186667 91.7866667,122.16 86.24,119.706667 C76.4266667,115.44 75.4666667,111.706667 75.4666667,105.733333 C75.4666667,99.8666667 75.4666667,92.8266667 75.4666667,92.8266667 L52.8533333,92.8266667 C52.8533333,92.8266667 52.8533333,99.76 52.8533333,105.626667 C52.8533333,111.493333 51.8933333,115.333333 42.08,119.493333 C36.4266667,121.946667 30.6666667,124.08 25.8666667,125.893333 L25.8666667,128 L102.133333,128 L102.133333,126 Z" id="Shape" fill="#FFDFDD"></path>
            <path d="M93.919502,83.0410378 C92.1440415,84.6623318 86.7190236,85.5630508 86.1272034,83.9417567 C85.5353833,82.3204626 86.7190236,67.0082407 89.0863041,65.9273779 C91.4535847,64.8465152 100.82407,63.1351492 100.82407,71.3316916 C100.725434,79.438162 95.6949624,81.4197437 93.919502,83.0410378 Z M34.1871647,83.0410378 C32.4117043,81.4197437 27.2825963,79.438162 27.2825963,71.3316916 C27.2825963,63.1351492 36.7517187,64.8465152 39.1189992,65.9273779 C41.4862798,67.0082407 42.6699201,82.3204626 42.0781,83.9417567 C41.4862798,85.5630508 35.9626251,84.6623318 34.1871647,83.0410378 Z" id="Shape" fill="#FFDFDD"></path>
            <path d="M64.0685411,113.133333 C45.2197438,113.133333 31.1002812,88.283079 31.1002812,54.5375633 L31.1002812,41 L96.8997188,41 L96.8997188,54.5375633 C96.8997188,88.283079 82.7802562,113.133333 64.0685411,113.133333 Z" id="Shape" fill="#FFF2F1"></path>
            <path d="M100.266667,38.5717382 L100.266667,65.7323413 C86.3139686,65.3892422 75,51.5717382 68.0296439,40.9497812 C63.7980879,57.8760051 44.2986205,70.4563067 26,70.4563067 L26,38.5717382 L100.266667,38.5717382 Z" id="Shape" fill="#222222"></path>
            <path d="M56,97 C56,101.4 59.6,105 64,105 C68.4,105 72,101.4 72,97 L56,97 Z" id="Shape" fill="#FFC6C1"></path>
            <path d="M50.56,128 L18.0266667,128 L18.1333333,127.893333 C19.6266667,126.293333 21.5466667,125.226667 23.68,124.693333 L45.5466667,117.466667 L50.56,128 Z M109.973333,128 L77.44,128 L82.4533333,117.466667 L104.32,124.693333 C106.453333,125.226667 108.373333,126.293333 109.973333,128 Z" id="Combined-Shape" fill="url(#linearGradient-1)" fill-rule="nonzero"></path>
        </g>
    </g>
</svg>