<?xml version="1.0" encoding="utf-8"?>
<!-- Generator: Adobe Illustrator 18.0.0, SVG Export Plug-In . SVG Version: 6.00 Build 0)  -->
<!DOCTYPE svg PUBLIC "-//W3C//DTD SVG 1.1//EN" "http://www.w3.org/Graphics/SVG/1.1/DTD/svg11.dtd">
<svg version="1.1" id="图层_1" xmlns="http://www.w3.org/2000/svg" xmlns:xlink="http://www.w3.org/1999/xlink" x="0px" y="0px"
	 width="48px" height="48px" viewBox="0 0 48 48" style="enable-background:new 0 0 48 48;" xml:space="preserve">
<style type="text/css">
	.st0{fill:url(#SVGID_1_);}
	.st1{fill:#CFE4FF;}
	.st2{fill:url(#SVGID_2_);}
	.st3{fill:url(#SVGID_3_);}
	.st4{fill:url(#SVGID_4_);}
	.st5{fill:#CCEDFF;}
	.st6{fill:url(#SVGID_5_);}
	.st7{fill:url(#SVGID_6_);}
	.st8{fill:url(#SVGID_7_);}
	.st9{fill:url(#SVGID_8_);}
	.st10{fill:url(#SVGID_9_);}
	.st11{fill:url(#SVGID_10_);}
	.st12{fill:url(#SVGID_11_);}
	.st13{fill:url(#SVGID_12_);}
	.st14{fill:url(#SVGID_13_);}
	.st15{fill:url(#SVGID_14_);}
	.st16{fill:url(#SVGID_15_);}
	.st17{fill:url(#SVGID_16_);}
	.st18{fill:url(#SVGID_17_);}
	.st19{fill-rule:evenodd;clip-rule:evenodd;fill:#444444;}
	.st20{fill:#444444;}
	.st21{fill:none;stroke:#444444;stroke-width:4;stroke-miterlimit:10;}
	.st22{fill:#29CC85;}
	.st23{fill:#006EFF;}
	.st24{fill:url(#SVGID_18_);}
	.st25{fill:url(#SVGID_19_);}
	.st26{fill:url(#SVGID_20_);}
	.st27{fill-rule:evenodd;clip-rule:evenodd;fill:none;}
	.st28{fill-rule:evenodd;clip-rule:evenodd;fill:none;stroke:#444444;stroke-width:4;stroke-miterlimit:10;}
	.st29{fill:none;stroke:#000000;stroke-miterlimit:10;}
	.st30{fill:url(#SVGID_21_);}
	.st31{fill:url(#SVGID_22_);}
</style>
<g>
	<linearGradient id="SVGID_1_" gradientUnits="userSpaceOnUse" x1="33.5879" y1="39.8567" x2="12.0305" y2="2.5183">
		<stop  offset="0" style="stop-color:#006EFF"/>
		<stop  offset="1" style="stop-color:#00A4FF"/>
	</linearGradient>
	<path class="st0" d="M6,6v34.5l8-5.5h28V6H6z M36.3,21.1c-2.2,4.8-7,7.9-12.3,7.9s-10.1-3.1-12.3-7.9c-0.3-0.8,0-1.6,0.7-2
		c0.8-0.3,1.6,0,2,0.7c1.7,3.7,5.5,6.1,9.5,6.1s7.8-2.4,9.5-6.1c0.3-0.8,1.2-1.1,2-0.7C36.3,19.5,36.6,20.4,36.3,21.1z"/>
	<rect y="10" class="st1" width="3" height="21"/>
	<rect x="45" y="10" class="st1" width="3" height="21"/>
</g>
</svg>
