<?xml version="1.0" encoding="utf-8"?>
<!-- Generator: Adobe Illustrator 21.0.0, SVG Export Plug-In . SVG Version: 6.00 Build 0)  -->
<svg version="1.1" id="图层_1" xmlns="http://www.w3.org/2000/svg" xmlns:xlink="http://www.w3.org/1999/xlink" x="0px" y="0px"
	 width="48px" height="48px" viewBox="0 0 48 48" style="enable-background:new 0 0 48 48;" xml:space="preserve">
<style type="text/css">
	.st0{fill:url(#SVGID_1_);}
	.st1{fill:#CFE4FF;}
	.st2{fill:url(#SVGID_2_);}
	.st3{fill:url(#SVGID_3_);}
	.st4{fill:url(#SVGID_4_);}
	.st5{fill:#CCEDFF;}
	.st6{fill:url(#SVGID_5_);}
	.st7{fill:url(#SVGID_6_);}
	.st8{fill:url(#SVGID_7_);}
</style>
<g>
	<polygon class="st5" points="41,17 41,35 16,35 16,40 40,40 46,44 46,17 	"/>
	<linearGradient id="SVGID_1_" gradientUnits="userSpaceOnUse" x1="29.4216" y1="36.9527" x2="8.9803" y2="1.5473">
		<stop  offset="0" style="stop-color:#00A4FF"/>
		<stop  offset="1" style="stop-color:#00C8DC"/>
	</linearGradient>
	<path class="st0" d="M3,5v33l8-6h27V5H3z M32.8,18.1c-2.2,4.8-7,7.9-12.3,7.9s-10.1-3.1-12.3-7.9c-0.3-0.8,0-1.6,0.7-2
		c0.8-0.3,1.6,0,2,0.7c1.7,3.7,5.5,6.1,9.5,6.1s7.8-2.4,9.5-6.1c0.3-0.8,1.2-1.1,2-0.7C32.8,16.5,33.1,17.4,32.8,18.1z"/>
</g>
</svg>
