<?xml version="1.0" encoding="utf-8"?>
<!-- Generator: Adobe Illustrator 18.0.0, SVG Export Plug-In . SVG Version: 6.00 Build 0)  -->
<!DOCTYPE svg PUBLIC "-//W3C//DTD SVG 1.1//EN" "http://www.w3.org/Graphics/SVG/1.1/DTD/svg11.dtd">
<svg version="1.1" id="图层_1" xmlns="http://www.w3.org/2000/svg" xmlns:xlink="http://www.w3.org/1999/xlink" x="0px" y="0px"
	 width="48px" height="48px" viewBox="0 0 48 48" style="enable-background:new 0 0 48 48;" xml:space="preserve">
<style type="text/css">
	.st0{fill-rule:evenodd;clip-rule:evenodd;fill:#888888;}
	.st1{fill-rule:evenodd;clip-rule:evenodd;fill:#BBBBBB;}
</style>
<path class="st0" d="M3,7v34h42V7H3z M28,28c-2.2,0-4-1.8-4-4s1.8-4,4-4s4,1.8,4,4S30.2,28,28,28z"/>
<path class="st1" d="M28,17c-3.9,0-7,3.1-7,7s3.1,7,7,7h17V17H28z M28,28c-2.2,0-4-1.8-4-4s1.8-4,4-4s4,1.8,4,4S30.2,28,28,28z"/>
</svg>
