<?xml version="1.0" encoding="utf-8"?>
<!-- Generator: Adobe Illustrator 18.0.0, SVG Export Plug-In . SVG Version: 6.00 Build 0)  -->
<!DOCTYPE svg PUBLIC "-//W3C//DTD SVG 1.1//EN" "http://www.w3.org/Graphics/SVG/1.1/DTD/svg11.dtd">
<svg version="1.1" id="图层_1" xmlns="http://www.w3.org/2000/svg" xmlns:xlink="http://www.w3.org/1999/xlink" x="0px" y="0px"
	 width="200px" height="200px" viewBox="0 0 200 200" style="enable-background:new 0 0 200 200;" xml:space="preserve">
<style type="text/css">
	.st0{fill:#006EFF;}
	.st1{fill:#29cc85;}
</style>
<g>
	<g>
		<path class="st0" d="M184,27H16C7.2,27,0,34.2,0,43v114c0,8.8,7.2,16,16,16h168c8.8,0,16-7.2,16-16V43C200,34.2,192.8,27,184,27
			L184,27z M16,165c-4.4,0-8-3.6-8-8V43c0-4.4,3.6-8,8-8h168c4.4,0,8,3.6,8,8v114c0,4.4-3.6,8-8,8H16L16,165z"/>
	</g>
	<g>
		<polygon class="st0" points="180,68 120,68 120,76 180,76 		"/>
	</g>
	<g>
		<polygon class="st0" points="180,96 120,96 120,104 180,104 		"/>
	</g>
	<g>
		<polygon class="st0" points="180,124 120,124 120,132 180,132 		"/>
	</g>
	<g>
		<path class="st0" d="M63,117c10.2,0,20.1,1.8,27.2,4.9c5.9,2.6,7.8,5.3,7.8,6.1v6H28v-6c0-0.8,2-3.5,7.8-6.1
			C42.9,118.8,52.8,117,63,117 M63,109c-23.7,0-43,8.5-43,19v14h86v-14C106,117.5,86.7,109,63,109L63,109z"/>
	</g>
	<g>
		<path class="st0" d="M63,66.4c8.1,0,14.6,6.6,14.6,14.6S71.1,95.6,63,95.6S48.4,89.1,48.4,81S54.9,66.4,63,66.4 M63,58
			c-12.7,0-23,10.3-23,23s10.3,23,23,23s23-10.3,23-23S75.7,58,63,58L63,58z"/>
	</g>
</g>
</svg>
