<?xml version="1.0" encoding="utf-8"?>
<!-- Generator: Adobe Illustrator 21.0.0, SVG Export Plug-In . SVG Version: 6.00 Build 0)  -->
<svg version="1.1" id="图层_1" xmlns="http://www.w3.org/2000/svg" xmlns:xlink="http://www.w3.org/1999/xlink" x="0px" y="0px"
	 width="48px" height="48px" viewBox="0 0 48 48" style="enable-background:new 0 0 48 48;" xml:space="preserve">
<style type="text/css">
	.st0{fill:#E6E6E6;}
	.st1{fill:url(#SVGID_1_);}
	.st2{fill:#CFE4FF;}
	.st3{fill:url(#SVGID_2_);}
	.st4{fill:url(#SVGID_3_);}
	.st5{fill:url(#SVGID_4_);}
	.st6{fill:url(#SVGID_5_);}
	.st7{fill:#CCEDFF;}
	.st8{fill:url(#SVGID_6_);}
	.st9{fill:url(#SVGID_7_);}
	.st10{fill:url(#SVGID_8_);}
	.st11{fill:url(#SVGID_9_);}
	.st12{fill:url(#SVGID_10_);}
	.st13{fill:url(#SVGID_11_);}
	.st14{fill:url(#SVGID_12_);}
	.st15{fill:url(#SVGID_13_);}
	.st16{fill:url(#SVGID_14_);}
	.st17{fill:url(#SVGID_15_);}
	.st18{fill:url(#SVGID_16_);}
	.st19{fill:url(#SVGID_17_);}
	.st20{fill:url(#SVGID_18_);}
	.st21{fill:url(#SVGID_19_);}
	.st22{fill:url(#SVGID_20_);}
	.st23{fill:url(#SVGID_21_);}
	.st24{fill:url(#SVGID_22_);}
	.st25{fill-rule:evenodd;clip-rule:evenodd;fill:#444444;}
	.st26{fill:#444444;}
	.st27{fill:none;stroke:#444444;stroke-width:4;stroke-miterlimit:10;}
	.st28{fill:#29CC85;}
	.st29{fill:#006EFF;}
	.st30{fill:url(#SVGID_23_);}
	.st31{fill:url(#SVGID_24_);}
	.st32{fill:url(#SVGID_25_);}
	.st33{fill-rule:evenodd;clip-rule:evenodd;fill:none;}
	.st34{fill-rule:evenodd;clip-rule:evenodd;fill:none;stroke:#444444;stroke-width:4;stroke-miterlimit:10;}
	.st35{fill:none;stroke:#000000;stroke-miterlimit:10;}
	.st36{fill:url(#SVGID_26_);}
	.st37{fill:url(#SVGID_27_);}
	.st38{fill:#FF0000;}
	.st39{fill:#FFFFFF;}
	.st40{clip-path:url(#SVGID_29_);}
	.st41{fill:url(#SVGID_30_);}
	.st42{clip-path:url(#SVGID_32_);}
	.st43{fill:url(#SVGID_33_);}
	.st44{fill:url(#SVGID_34_);}
	.st45{fill:url(#SVGID_35_);}
	.st46{fill:url(#SVGID_36_);}
	.st47{clip-path:url(#SVGID_38_);}
	.st48{fill:url(#SVGID_39_);}
	.st49{clip-path:url(#SVGID_43_);}
	.st50{clip-path:url(#SVGID_44_);}
	.st51{fill:url(#SVGID_46_);}
	.st52{fill:url(#SVGID_47_);}
	.st53{fill:url(#SVGID_48_);}
	.st54{fill:url(#SVGID_49_);}
	.st55{fill:url(#SVGID_50_);}
	.st56{fill:url(#SVGID_51_);}
	.st57{fill:url(#SVGID_52_);}
</style>
<g>
	<linearGradient id="SVGID_1_" gradientUnits="userSpaceOnUse" x1="32.0035" y1="47.0919" x2="11.8724" y2="12.2238">
		<stop  offset="0" style="stop-color:#006EFF"/>
		<stop  offset="1" style="stop-color:#00A4FF"/>
	</linearGradient>
	<path class="st1" d="M11.8,38.4c-1.5,1-3.2,1.9-4.5,2.8C11.6,45.4,17.5,48,24,48c6.5,0,12.4-2.6,16.7-6.8c-1.4-1-3-1.8-4.5-2.8
		c-2.6-1.7-7-3.9-7-6.5c0-2.2,2.2-3,3.5-6.1c1.2-2.9,1.3-5.7,1.3-10C34,10.9,29.7,7,24,7c-5.7,0-10,3.9-10,8.7c0,4.4,0.1,7.1,1.3,10
		c1.3,3,3.5,3.9,3.5,6.1C18.8,34.4,14.4,36.6,11.8,38.4z"/>
	<g>
		<path class="st2" d="M8.1,37.1c0.7-0.4,1.4-0.8,2-1.2c0.5-0.3,1-0.6,1.5-1c1.2-0.7,3.6-2.3,4.1-3.1c-0.1-0.2-0.5-0.7-0.8-1
			c-0.7-0.9-1.7-2.1-2.5-3.8c-1.4-3.4-1.5-6.6-1.5-11.2C11,9.1,16.7,4,24,4c7.3,0,13,5.1,13,11.7c0,4.6-0.1,7.8-1.5,11.2
			c-0.8,1.8-1.7,3-2.5,3.8c-0.3,0.3-0.7,0.8-0.8,1c0.4,0.8,2.9,2.4,4.1,3.1c0.5,0.3,1.1,0.7,1.5,1c0.6,0.4,1.3,0.8,2,1.2
			c1,0.6,2,1.2,2.9,1.9C46,34.9,48,29.7,48,24C48,10.7,37.3,0,24,0S0,10.7,0,24c0,5.7,2,10.8,5.2,15C6.2,38.3,7.1,37.7,8.1,37.1z"/>
	</g>
</g>
</svg>
